# xmcd CD database file
#
# Track frame offsets:
#	150
#	16951
#	33704
#	47729
#	63175
#	79742
#	96234
#	111925
#	126814
#	140873
#	155148
#	167355
#	183938
#	198069
#	213801
#	230123
#	243793
#	260960
#	273094
#
# Disc length: 3834 seconds
#
# Revision: 0
# Processed by: cddbd v1.5.2PL0 Copyright (c) Steve Scherf et al.
# Submitted via: CDex 1.70beta2
#
DISCID=0b0ef813
DTITLE=Various Artist - NU COUNTRY TRAXX 185
DYEAR=2014
DGENRE=Country
TTITLE0=Neon Light - Blake Shelton
TTITLE1=Burnin It Down - Jason Aldean
TTITLE2=Hard To Be Cool - Joe Nichols
TTITLE3=Homegrown Honey - Darius Rucker
TTITLE4=What We Ain't Got - Jake Owen
TTITLE5=Shake It Off - Taylor Swift
TTITLE6=Drinking Class - Lee Brice
TTITLE7=You Are What You Love - Kelleigh Bannen
TTITLE8=Headlights - Montgomery Gentry
TTITLE9=Baby Be My Love Song - Easton Corbin
TTITLE10=Mason Jar - Natalie Stovall and The Drive 
TTITLE11=Make Me Wanna - Thomas Rhett
TTITLE12=Shut Me Up - Lindsay Ell
TTITLE13=Lonely Eyes - Chris Young
TTITLE14=Shining Now - Rachel Holder
TTITLE15=Hell Yeah - Daniel Lee 
TTITLE16=Used - Jess Moskaluke
TTITLE17=Boat On The Water - Aaron Pritchett
TTITLE18=Nowhere With You - SaraBeth
EXTD=YEAR: 2014
EXTT0=
EXTT1=
EXTT2=
EXTT3=
EXTT4=
EXTT5=
EXTT6=
EXTT7=
EXTT8=
EXTT9=
EXTT10=
EXTT11=
EXTT12=
EXTT13=
EXTT14=
EXTT15=
EXTT16=
EXTT17=
EXTT18=
PLAYORDER=
